<svg width="16" height="8" viewBox="0 0 16 8" fill="none" xmlns="http://www.w3.org/2000/svg">
<path d="M15 2.99999H4.6847C4.6405 2.99999 4.59811 2.98243 4.56685 2.95117C4.5356 2.91992 4.51804 2.87753 4.51804 2.83332V0.814657C4.51801 0.682823 4.47889 0.553958 4.40564 0.444351C4.33238 0.334745 4.22827 0.249318 4.10647 0.198872C3.98467 0.148425 3.85065 0.135223 3.72135 0.160935C3.59205 0.186646 3.47327 0.250117 3.38004 0.343324L0.194703 3.52866C0.069722 3.65368 -0.000488281 3.82321 -0.000488281 3.99999C-0.000488281 4.17677 0.069722 4.3463 0.194703 4.47132L3.38004 7.65666C3.50503 7.78169 3.67457 7.85195 3.85137 7.85199C4.02818 7.85199 4.19775 7.78175 4.32277 7.65673C4.4478 7.5317 4.51804 7.36213 4.51804 7.18532V5.16666C4.51804 5.12245 4.5356 5.08006 4.56685 5.04881C4.59811 5.01755 4.6405 4.99999 4.6847 4.99999H15C15.2653 4.99999 15.5196 4.89463 15.7071 4.7071C15.8947 4.51956 16 4.26521 16 3.99999C16 3.73477 15.8947 3.48042 15.7071 3.29288C15.5196 3.10535 15.2653 2.99999 15 2.99999Z" fill="#ffffff"/>
</svg>
